Coordinates
version=1
nRows=27
nColumns=33
inDegrees=yes

Units are S.I. units (second, meters, Newtons, ...)
Angles are in degrees.

endheader
time	ground_thorax_rot_x	ground_thorax_rot_y	ground_thorax_rot_z	ground_thorax_tx	ground_thorax_ty	ground_thorax_tz	clav_prot_r	clav_elev_r	scapula_abduction_r	scapula_elevation_r	scapula_upward_rot_r	scapula_winging_r	shoulder_elv_r	plane_of_elev_r	axial_rot_r	elbow_flexion_r	pro_sup_r	wrist_flex_r	wrist_dev_r	clav_prot_l	clav_elev_l	scapula_abduction_l	scapula_elevation_l	scapula_upward_rot_l	scapula_winging_l	shoulder_elv_l	plane_of_elev_l	axial_rot_l	elbow_flexion_l	pro_sup_l	wrist_flex_l	wrist_dev_l	
3.2500	2.999359	5.949639	-1.090357	-0.183364	1.001132	0.015706	-19.331267	-8.994381	-26.727227	-4.142547	5.996887	3.012274	63.322492	-53.198232	55.098627	77.129281	30.146308	38.292073	-23.100555	-6.415413	-3.308242	9.025271	-4.579102	-4.400306	-2.579547	46.770422	-48.485117	-22.607454	73.033607	26.478337	-18.845079	-25.000000	
3.2600	2.986212	5.939818	-1.057920	-0.183438	1.000949	0.015613	-19.343484	-9.004616	-26.747249	-4.151206	5.992821	3.015935	63.310741	-53.209396	55.098082	77.142098	30.146029	38.300779	-23.113376	-6.416450	-3.328278	9.026485	-4.565197	-4.411769	-2.584414	46.747554	-48.467631	-22.586509	73.022533	26.481561	-18.859521	-25.000000	
3.2700	2.976291	5.936251	-1.028498	-0.183486	1.000760	0.015528	-19.359234	-9.018612	-26.772002	-4.163871	5.989662	3.020965	63.299684	-53.221557	55.093272	77.156971	30.147254	38.314426	-23.133353	-6.417611	-3.347214	9.029252	-4.553207	-4.425652	-2.590586	46.724399	-48.451758	-22.551757	73.003031	26.486577	-18.884255	-25.000000	
3.2800	2.962852	5.935097	-0.989022	-0.183537	1.000624	0.015459	-19.386289	-9.040094	-26.814112	-4.184272	5.986588	3.029133	63.285359	-53.242245	55.081662	77.180326	30.149765	38.338042	-23.168509	-6.420470	-3.373294	9.036301	-4.537688	-4.447221	-2.600453	46.691448	-48.431415	-22.487998	72.965930	26.495073	-18.928365	-25.000000	
3.2900	2.949125	5.940148	-0.952532	-0.183572	1.000514	0.015404	-19.424013	-9.071825	-26.871595	-4.215106	5.984178	3.041355	63.271721	-53.268004	55.060579	77.209892	30.157668	38.377493	-23.225381	-6.421032	-3.405521	9.041331	-4.520226	-4.478047	-2.613206	46.650232	-48.402441	-22.387802	72.910677	26.509652	-19.004372	-25.000000	
3.3000	2.933229	5.954074	-0.920221	-0.183607	1.000436	0.015354	-19.473240	-9.116611	-26.945387	-4.258911	5.982143	3.058757	63.259535	-53.296885	55.027929	77.248059	30.175128	38.438785	-23.309820	-6.415843	-3.446008	9.038575	-4.500093	-4.520775	-2.628399	46.599408	-48.360110	-22.246319	72.837730	26.533091	-19.124236	-25.000000	
3.3100	2.921612	5.983830	-0.923919	-0.183646	1.000385	0.015302	-19.536658	-9.191940	-27.036804	-4.331691	5.979491	3.088614	63.254832	-53.320710	54.976163	77.292485	30.216410	38.547876	-23.452541	-6.390048	-3.504252	9.004430	-4.474568	-4.589635	-2.645923	46.527311	-48.275457	-22.026588	72.741801	26.576551	-19.340374	-25.000000	
3.3200	2.907970	6.031509	-0.950040	-0.183700	1.000351	0.015255	-19.615303	-9.291391	-27.150834	-4.426182	5.972522	3.128874	63.255243	-53.342694	54.905340	77.352384	30.288355	38.707212	-23.649900	-6.340585	-3.574990	8.933782	-4.447851	-4.682458	-2.663198	46.443203	-48.160724	-21.743691	72.629664	26.642460	-19.657986	-25.000000	
3.3300	2.891487	6.097962	-0.998074	-0.183775	1.000312	0.015208	-19.703925	-9.408959	-27.281158	-4.535708	5.958995	3.177640	63.261529	-53.357877	54.818499	77.426247	30.396124	38.911920	-23.889444	-6.264371	-3.653901	8.820527	-4.422338	-4.795157	-2.677073	46.356487	-48.020295	-21.422385	72.515236	26.729520	-20.071464	-25.000000	
3.3400	2.861628	6.194860	-1.033798	-0.183883	1.000232	0.015166	-19.802826	-9.522032	-27.438434	-4.635642	5.928549	3.227456	63.273505	-53.374923	54.714203	77.526980	30.561540	39.161398	-24.149201	-6.155227	-3.725633	8.653787	-4.408985	-4.918972	-2.680287	46.295806	-47.886501	-21.119836	72.427727	26.841145	-20.585914	-25.000000	
3.3500	2.819880	6.317302	-1.061411	-0.184005	1.000121	0.015144	-19.913912	-9.632674	-27.624722	-4.728523	5.882560	3.278943	63.287300	-53.388666	54.593503	77.650957	30.781478	39.441473	-24.412035	-6.019138	-3.792629	8.443210	-4.404659	-5.052334	-2.675050	46.264738	-47.757238	-20.838824	72.356467	26.968765	-21.187043	-25.000000	
3.3600	2.760169	6.457229	-1.054458	-0.184130	0.999978	0.015142	-20.034123	-9.723830	-27.836963	-4.799342	5.823766	3.324376	63.297105	-53.402001	54.463625	77.800760	31.040000	39.718696	-24.638612	-5.871929	-3.845421	8.213541	-4.411369	-5.179442	-2.661490	46.278460	-47.659207	-20.621312	72.309871	27.096716	-21.817499	-25.000000	
3.3700	2.687432	6.610671	-1.041056	-0.184238	0.999842	0.015166	-20.175851	-9.814574	-28.088724	-4.868683	5.757994	3.370022	63.296853	-53.394847	54.318354	77.971451	31.336808	39.967707	-24.801296	-5.720375	-3.898570	7.976382	-4.418398	-5.307890	-2.646091	46.336956	-47.565249	-20.449266	72.266880	27.205931	-22.480547	-25.000000	
3.3800	2.606250	6.774020	-1.023387	-0.184339	0.999710	0.015194	-20.331230	-9.903111	-28.364169	-4.936459	5.690954	3.413932	63.289399	-53.367262	54.161633	78.163820	31.650952	40.180364	-24.904636	-5.569474	-3.951074	7.739272	-4.424655	-5.433071	-2.629483	46.431098	-47.474267	-20.322816	72.241272	27.292832	-23.150187	-24.999999	
3.3900	2.524791	6.928821	-1.025891	-0.184420	0.999599	0.015241	-20.498792	-10.003980	-28.651765	-5.020157	5.634216	3.460032	63.268044	-53.314767	53.997337	78.393130	31.942194	40.343059	-24.962045	-5.431271	-4.012454	7.522242	-4.421523	-5.556423	-2.618204	46.537662	-47.368184	-20.198963	72.218874	27.346321	-23.796169	-24.999999	
3.4000	2.447106	7.061116	-1.027641	-0.184494	0.999481	0.015278	-20.651214	-10.095692	-28.906007	-5.101113	5.596103	3.498442	63.237045	-53.250341	53.843997	78.657062	32.155094	40.434267	-24.982142	-5.320182	-4.068410	7.346523	-4.413096	-5.656279	-2.610006	46.645509	-47.274458	-20.102986	72.230779	27.362249	-24.329297	-24.999999	
3.4100	2.372569	7.178684	-1.034598	-0.184551	0.999317	0.015320	-20.795327	-10.176791	-29.141454	-5.176466	5.571160	3.529565	63.194596	-53.177847	53.689585	78.984159	32.278891	40.437662	-24.967868	-5.227451	-4.119108	7.197745	-4.401108	-5.736734	-2.602299	46.767416	-47.196417	-20.041953	72.301139	27.333723	-24.770551	-24.999998	
3.4200	2.302287	7.289784	-1.033629	-0.184608	0.999099	0.015350	-20.919629	-10.237422	-29.344141	-5.234130	5.553211	3.550636	63.147431	-53.109614	53.535593	79.368126	32.296650	40.350304	-24.942841	-5.146167	-4.159397	7.063896	-4.389605	-5.795470	-2.591221	46.902517	-47.147096	-20.023388	72.451649	27.267021	-25.113954	-24.999996	
3.4300	2.228396	7.403842	-1.033481	-0.184658	0.998850	0.015403	-21.040899	-10.289374	-29.547483	-5.280875	5.527640	3.569728	63.084423	-53.036750	53.368077	79.823209	32.200702	40.126232	-24.896499	-5.060531	-4.201750	6.920610	-4.375053	-5.851250	-2.577498	47.075859	-47.122336	-20.041811	72.671081	27.142177	-25.402536	-24.999992	
3.4400	2.153189	7.519388	-1.030378	-0.184708	0.998627	0.015450	-21.155608	-10.336978	-29.742899	-5.321737	5.497897	3.587983	63.012060	-52.950099	53.195318	80.315496	32.005282	39.768670	-24.818216	-4.974768	-4.247825	6.775559	-4.356202	-5.905035	-2.563561	47.273781	-47.111639	-20.082020	72.938799	26.963320	-25.625259	-24.999987	
3.4500	2.075446	7.647755	-1.039579	-0.184747	0.998439	0.015508	-21.284799	-10.394735	-29.964800	-5.369995	5.459767	3.611915	62.933084	-52.838258	53.001781	80.853022	31.761870	39.300864	-24.696817	-4.874853	-4.303296	6.608279	-4.334855	-5.973300	-2.549451	47.498084	-47.092362	-20.121335	73.242279	26.740007	-25.854047	-24.999976	
3.4600	1.998379	7.778081	-1.053855	-0.184783	0.998314	0.015558	-21.417610	-10.459302	-30.192737	-5.423800	5.418757	3.638945	62.852508	-52.695678	52.794860	81.420036	31.462176	38.700902	-24.489143	-4.772080	-4.362760	6.436474	-4.311423	-6.045398	-2.535892	47.728244	-47.062846	-20.149714	73.571020	26.473915	-26.029247	-24.999957	
3.4700	1.923113	7.900886	-1.067718	-0.184815	0.998240	0.015602	-21.549642	-10.526448	-30.417050	-5.481257	5.381286	3.666593	62.774839	-52.524375	52.578168	82.021401	31.116014	37.990296	-24.188644	-4.671469	-4.419733	6.268177	-4.289159	-6.114825	-2.522203	47.953199	-47.026225	-20.165793	73.923953	26.176011	-26.134871	-24.999923	
3.4800	1.854128	8.011826	-1.076101	-0.184848	0.998206	0.015626	-21.672968	-10.588880	-30.624792	-5.535760	5.349309	3.691107	62.711435	-52.322377	52.353119	82.660110	30.716406	37.135859	-23.728610	-4.580745	-4.468403	6.114865	-4.269118	-6.171407	-2.507723	48.156102	-46.981630	-20.161633	74.307115	25.844971	-26.116826	-24.999863	
3.4900	1.793554	8.109046	-1.075396	-0.184876	0.998184	0.015623	-21.783785	-10.642382	-30.806305	-5.586081	5.330999	3.709329	62.668405	-52.101489	52.122984	83.334701	30.297611	36.217623	-23.146705	-4.504102	-4.502323	5.982443	-4.253865	-6.207020	-2.491033	48.327251	-46.930088	-20.140915	74.727990	25.509328	-25.995477	-24.999754	
3.5000	1.736367	8.200856	-1.070869	-0.184906	0.998175	0.015606	-21.885346	-10.690986	-30.974660	-5.630297	5.310065	3.726100	62.639197	-51.856987	51.867342	84.057267	29.828117	35.150585	-22.368893	-4.433271	-4.527945	5.855605	-4.238664	-6.224322	-2.470418	48.481773	-46.872973	-20.103436	75.191668	25.151898	-25.747318	-24.999560	
3.5100	1.681662	8.284615	-1.055784	-0.184934	0.998185	0.015570	-21.974687	-10.737077	-31.119285	-5.674232	5.296976	3.741091	62.621372	-51.599918	51.598705	84.795888	29.357501	34.061801	-21.496047	-4.371098	-4.544046	5.739132	-4.223938	-6.221750	-2.446767	48.614517	-46.808763	-20.050725	75.680250	24.810121	-25.427957	-24.999212	
